<svg xmlns="http://www.w3.org/2000/svg" viewBox="0 0 128 128">
  <defs>
    <linearGradient id="bg" x1="17" x2="111" y1="18" y2="110" gradientUnits="userSpaceOnUse">
      <stop stop-color="#5b5ff7"/>
      <stop offset="1" stop-color="#1478ff"/>
    </linearGradient>
    <linearGradient id="paper" x1="38" x2="93" y1="31" y2="97" gradientUnits="userSpaceOnUse">
      <stop stop-color="#ffffff"/>
      <stop offset="1" stop-color="#edf4ff"/>
    </linearGradient>
    <filter id="shadow" x="-20%" y="-20%" width="140%" height="140%">
      <feDropShadow dx="0" dy="8" stdDeviation="7" flood-color="#1d4ed8" flood-opacity=".22"/>
    </filter>
  </defs>
  <rect width="104" height="104" x="12" y="12" rx="28" fill="url(#bg)" filter="url(#shadow)"/>
  <path fill="url(#paper)" d="M43 29h39l17 17v42a11 11 0 0 1-11 11H43a11 11 0 0 1-11-11V40a11 11 0 0 1 11-11Z"/>
  <path fill="#c8d8ff" d="M82 29v13a7 7 0 0 0 7 7h10L82 29Z"/>
  <path fill="#3466f6" d="M47 69V51c0-4 3-7 7-7h3c3 0 5 1 7 4l8 12 8-12c2-3 4-4 7-4h3c4 0 7 3 7 7v18c0 4-3 7-7 7s-7-3-7-7V58L78 68c-1 2-3 3-6 3s-5-1-6-3l-5-10v11c0 4-3 7-7 7s-7-3-7-7Z"/>
  <path fill="#3466f6" d="M92 58a4 4 0 0 1 4 4v9l3-3a4 4 0 1 1 6 6l-10 10a4 4 0 0 1-6 0L79 74a4 4 0 1 1 6-6l3 3v-9a4 4 0 0 1 4-4Z"/>
  <rect width="39" height="4" x="47" y="82" rx="2" fill="#9bb6ff"/>
  <rect width="33" height="4" x="47" y="90" rx="2" fill="#9bb6ff"/>
</svg>
